<svg width="24" height="24" viewBox="0 0 24 24" fill="none" xmlns="http://www.w3.org/2000/svg">
<path d="M19.6667 0C20.8159 0 21.9181 0.456546 22.7308 1.2692C23.5435 2.08186 24 3.18406 24 4.33333V19.6667C24 20.8159 23.5435 21.9181 22.7308 22.7308C21.9181 23.5435 20.8159 24 19.6667 24H4.33333C3.18406 24 2.08186 23.5435 1.2692 22.7308C0.456546 21.9181 0 20.8159 0 19.6667V4.33333C0 3.18406 0.456546 2.08186 1.2692 1.2692C2.08186 0.456546 3.18406 0 4.33333 0H19.6667ZM22 7.33333H2V19.6667C2 20.9547 3.04533 22 4.33333 22H19.6667C20.2855 22 20.879 21.7542 21.3166 21.3166C21.7542 20.879 22 20.2855 22 19.6667V7.33333ZM6.33333 15.3333C6.77536 15.3333 7.19928 15.5089 7.51184 15.8215C7.82441 16.1341 8 16.558 8 17C8 17.442 7.82441 17.866 7.51184 18.1785C7.19928 18.4911 6.77536 18.6667 6.33333 18.6667C5.89131 18.6667 5.46738 18.4911 5.15482 18.1785C4.84226 17.866 4.66667 17.442 4.66667 17C4.66667 16.558 4.84226 16.1341 5.15482 15.8215C5.46738 15.5089 5.89131 15.3333 6.33333 15.3333ZM12 15.3333C12.442 15.3333 12.866 15.5089 13.1785 15.8215C13.4911 16.1341 13.6667 16.558 13.6667 17C13.6667 17.442 13.4911 17.866 13.1785 18.1785C12.866 18.4911 12.442 18.6667 12 18.6667C11.558 18.6667 11.134 18.4911 10.8215 18.1785C10.5089 17.866 10.3333 17.442 10.3333 17C10.3333 16.558 10.5089 16.1341 10.8215 15.8215C11.134 15.5089 11.558 15.3333 12 15.3333ZM6.33333 10C6.77536 10 7.19928 10.1756 7.51184 10.4882C7.82441 10.8007 8 11.2246 8 11.6667C8 12.1087 7.82441 12.5326 7.51184 12.8452C7.19928 13.1577 6.77536 13.3333 6.33333 13.3333C5.89131 13.3333 5.46738 13.1577 5.15482 12.8452C4.84226 12.5326 4.66667 12.1087 4.66667 11.6667C4.66667 11.2246 4.84226 10.8007 5.15482 10.4882C5.46738 10.1756 5.89131 10 6.33333 10ZM12 10C12.442 10 12.866 10.1756 13.1785 10.4882C13.4911 10.8007 13.6667 11.2246 13.6667 11.6667C13.6667 12.1087 13.4911 12.5326 13.1785 12.8452C12.866 13.1577 12.442 13.3333 12 13.3333C11.558 13.3333 11.134 13.1577 10.8215 12.8452C10.5089 12.5326 10.3333 12.1087 10.3333 11.6667C10.3333 11.2246 10.5089 10.8007 10.8215 10.4882C11.134 10.1756 11.558 10 12 10ZM17.6667 10C18.1087 10 18.5326 10.1756 18.8452 10.4882C19.1577 10.8007 19.3333 11.2246 19.3333 11.6667C19.3333 12.1087 19.1577 12.5326 18.8452 12.8452C18.5326 13.1577 18.1087 13.3333 17.6667 13.3333C17.2246 13.3333 16.8007 13.1577 16.4882 12.8452C16.1756 12.5326 16 12.1087 16 11.6667C16 11.2246 16.1756 10.8007 16.4882 10.4882C16.8007 10.1756 17.2246 10 17.6667 10ZM19.6667 2H4.33333C3.71449 2 3.121 2.24583 2.68342 2.68342C2.24583 3.121 2 3.71449 2 4.33333V5.33333H22V4.33333C22 3.71449 21.7542 3.121 21.3166 2.68342C20.879 2.24583 20.2855 2 19.6667 2Z" fill="#EB5E45"/>
</svg>
